<?xml version="1.0" encoding="utf-8"?>
<!-- Generator: Adobe Illustrator 15.1.0, SVG Export Plug-In . SVG Version: 6.00 Build 0)  -->
<!DOCTYPE svg PUBLIC "-//W3C//DTD SVG 1.1//EN" "http://www.w3.org/Graphics/SVG/1.1/DTD/svg11.dtd">
<svg version="1.1" id="Layer_1" xmlns="http://www.w3.org/2000/svg" xmlns:xlink="http://www.w3.org/1999/xlink" x="0px" y="0px"
	 width="1031.371px" height="1217.179px" viewBox="0 0 1031.371 1217.179" enable-background="new 0 0 1031.371 1217.179"
	 xml:space="preserve">
<g>
	<rect x="515.685" y="-452.824" fill="#58595B" width="0" height="958.034"/>
	<rect x="992.083" y="36.668" fill="#58595B" width="2.619" height="0.002"/>
	<g>
		<path fill="#58595B" d="M992.083,36.668L36.668,36.67v89.116h249.159c-5.713,2.701-11.377,5.486-16.979,8.381H36.668v231.68
			v60.318c23.044-58.804,56.598-112.339,98.361-158.278l-0.103-0.101c-6.642-6.64-12.633-12.029-18.719-16.197
			c-6.724-4.604-13.574-7.706-21.571-9.143c-1.596-0.283-2.824-0.36-3.99-0.457c-9.629,0.002-17.442,7.813-17.442,17.409
			c-0.004,5.926,2.975,10.475,6.679,13.19c2.869-3.72,5.725-7.454,8.668-11.066l9.871,8.046
			c-8.045,9.877-15.833,20.223-23.151,30.746l-10.46-7.272c2.41-3.466,4.943-6.867,7.448-10.285
			c-7.26-5.363-11.794-13.978-11.791-23.363c-0.004-11.152,6.126-20.859,15.154-26.073c-9.347-7.854-15.191-19.603-15.191-32.457
			c-0.004-23.37,19.013-42.389,42.397-42.396c0,0,0,0,0.004,0c12.846,0,24.591,5.838,32.453,15.168
			c5.209-9.046,14.966-15.174,26.142-15.174c0.004,0,0.012,0,0.017,0c9.388,0,17.998,4.534,23.355,11.784
			c3.421-2.503,6.83-5.038,10.292-7.444l7.269,10.46c-10.501,7.293-20.847,15.081-30.759,23.147l-8.038-9.879
			c3.618-2.944,7.346-5.797,11.062-8.659c-2.709-3.702-7.256-6.673-13.186-6.673c0,0-0.004,0-0.008,0
			c-9.605,0-17.417,7.809-17.417,17.407c-0.008,1.209,0.176,2.472,0.454,4.008c1.44,8.001,4.547,14.847,9.155,21.571
			c4.166,6.083,9.56,12.066,16.202,18.7l0.106,0.106c46.298-42.066,100.31-75.781,159.646-98.826
			c7.657-2.971,15.396-5.771,23.224-8.381c51.188-17.08,105.953-26.351,162.882-26.351s111.694,9.271,162.882,26.351
			c7.829,2.611,15.568,5.41,23.225,8.381c59.39,23.063,113.441,56.817,159.764,98.934l0.185-0.182
			c6.609-6.607,11.979-12.565,16.136-18.621c4.642-6.75,7.768-13.622,9.209-21.651c0.286-1.594,0.462-2.819,0.458-3.986
			c0-9.625-7.809-17.434-17.405-17.434c0,0-0.004,0-0.008,0c-5.922,0-10.465,2.973-13.182,6.675
			c3.716,2.86,7.443,5.715,11.058,8.657l-8.038,9.879c-9.903-8.063-20.249-15.848-30.746-23.143l7.269-10.46
			c3.462,2.406,6.867,4.939,10.284,7.442c5.36-7.248,13.971-11.786,23.355-11.786c0.004,0,0.008,0,0.012,0
			c11.148,0,20.88,6.102,26.094,15.125c7.854-9.329,19.594-15.16,32.437-15.16c0.004,0,0.008,0,0.012,0
			c11.315,0,21.956,4.406,29.961,12.408c8.005,8.005,12.416,18.649,12.416,29.971c0,12.846-5.836,24.587-15.171,32.447
			c9.045,5.206,15.171,14.956,15.171,26.13c0.004,9.388-4.534,18.003-11.786,23.364c2.505,3.419,5.038,6.828,7.44,10.284
			l-10.46,7.268c-7.272-10.472-15.061-20.816-23.143-30.744l9.879-8.042c2.946,3.62,5.799,7.346,8.655,11.062
			c3.708-2.713,6.683-7.262,6.679-13.19c0-9.599-7.809-17.407-17.405-17.407c-1.129,0.002-2.476,0.178-4.006,0.454
			c-8.038,1.447-14.913,4.576-21.67,9.218c-6.053,4.158-12.007,9.523-18.608,16.128l-0.188,0.19
			c40.171,44.215,72.714,95.472,95.635,151.679c0.881,2.157,1.769,4.308,2.619,6.479v-60.314V134.168h-2.619h-229.56
			c-5.603-2.896-11.267-5.68-16.979-8.381h246.539h2.619V36.67h-2.619V36.668z"/>
		<path fill="#58595B" d="M958.325,200.839c0-7.92-3.086-15.367-8.688-20.965c-5.599-5.598-13.038-8.68-20.953-8.68
			c-0.004,0-0.008,0-0.012,0c-14.103,0-26.327,10.016-29.073,23.817c-1.927,10.593-6.188,19.462-12.334,28.015
			c-4.485,6.239-9.953,12.322-16.387,18.766c5.755,5.498,11.386,11.127,16.882,16.885c6.441-6.438,12.522-11.901,18.764-16.386
			c8.553-6.149,17.417-10.409,28.009-12.334l-0.009-0.045C948.315,227.156,958.325,214.93,958.325,200.839z"/>
		<path fill="#58595B" d="M124.933,242.202c6.249,4.477,12.339,9.938,18.784,16.37c5.5-5.76,11.136-11.391,16.894-16.892
			c-6.433-6.441-11.896-12.527-16.378-18.772c-6.11-8.52-10.35-17.36-12.265-27.914l-0.049,0.01
			c-2.758-13.79-14.991-23.797-29.085-23.797c0,0,0,0-0.004,0c-16.357,0.006-29.666,13.311-29.662,29.658
			c0,14.103,10.022,26.326,23.826,29.068v0.002C107.553,231.852,116.4,236.087,124.933,242.202z"/>
		<path fill="#58595B" d="M906.54,985.184c-6.237-4.485-12.326-9.944-18.768-16.378c-5.496,5.762-11.132,11.394-16.886,16.894
			c6.438,6.441,11.9,12.522,16.39,18.76c6.151,8.553,10.407,17.417,12.331,28.008l0.049-0.012
			c2.759,13.787,14.99,23.797,29.085,23.797c0,0,0,0,0.004,0c16.357-0.008,29.666-13.309,29.662-29.657
			c0-14.103-10.022-26.326-23.826-29.068l0,0C923.981,995.603,915.1,991.339,906.54,985.184z"/>
		<path fill="#58595B" d="M73.25,1026.619c0,7.919,3.086,15.367,8.688,20.966c5.599,5.599,13.039,8.68,20.954,8.68
			c0.004,0,0.008,0,0.012,0c14.103,0,26.326-10.015,29.072-23.817c1.916-10.538,6.143-19.365,12.236-27.874
			c4.477-6.253,9.937-12.343,16.37-18.784c-5.762-5.5-11.393-11.131-16.889-16.885c-6.446,6.429-12.535,11.893-18.784,16.365
			c-8.508,6.094-17.332,10.316-27.865,12.232l0.008,0.045C83.26,1000.301,73.25,1012.529,73.25,1026.619z"/>
		<path fill="#58595B" d="M896.459,959.483l0.188,0.188c6.605,6.604,12.563,11.966,18.616,16.124
			c6.761,4.641,13.636,7.775,21.674,9.216c1.596,0.286,2.803,0.467,3.99,0.458c9.629-0.004,17.441-7.816,17.441-17.409
			c0.004-5.926-2.971-10.477-6.679-13.193c-2.869,3.724-5.726,7.456-8.668,11.065l-9.871-8.046
			c8.046-9.875,15.834-20.221,23.151-30.742l10.46,7.269c-2.41,3.471-4.943,6.867-7.448,10.288
			c7.26,5.361,11.795,13.976,11.79,23.359c0,11.148-6.102,20.88-15.13,26.094c9.331,7.857,15.167,19.594,15.167,32.437
			c0.004,23.372-19.014,42.389-42.397,42.397c0,0,0,0-0.004,0c-12.846,0-24.592-5.836-32.457-15.167
			c-5.205,9.044-14.962,15.175-26.139,15.175c-0.004,0-0.012,0-0.016,0c-9.389,0-17.999-4.538-23.355-11.786
			c-3.422,2.505-6.83,5.038-10.293,7.444l-7.268-10.461c10.501-7.292,20.847-15.08,30.758-23.146l8.038,9.879
			c-3.613,2.943-7.346,5.8-11.062,8.66c2.709,3.699,7.256,6.675,13.186,6.675c0,0,0.004,0,0.008,0
			c9.605,0,17.418-7.809,17.418-17.409c0.008-1.211-0.177-2.472-0.455-4.011c-1.448-8.029-4.575-14.904-9.216-21.657
			c-4.162-6.053-9.531-12.007-16.141-18.612l-0.184-0.18c-58.243,52.956-128.698,92.709-206.635,114.579
			c-11.319,3.176-22.786,5.975-34.4,8.382c-33.853,7.01-68.916,10.705-104.844,10.705c-35.927,0-70.991-3.695-104.844-10.705
			c-11.614-2.407-23.081-5.206-34.396-8.382c-77.895-21.857-148.317-61.582-206.544-114.497l-0.065,0.065
			c-6.658,6.654-12.06,12.653-16.234,18.751c-4.583,6.712-7.677,13.546-9.11,21.519c-0.287,1.596-0.462,2.823-0.458,3.985
			c0,9.626,7.809,17.434,17.405,17.434c0,0,0.004,0,0.008,0c5.921,0,10.464-2.971,13.182-6.67c-3.716-2.865-7.444-5.718-11.058-8.66
			l8.037-9.879c9.904,8.062,20.25,15.846,30.747,23.143l-7.268,10.46c-3.462-2.406-6.867-4.939-10.284-7.443
			c-5.361,7.251-13.972,11.785-23.355,11.785c-0.004,0-0.008,0-0.012,0c-11.148,0-20.88-6.098-26.093-15.125
			c-7.854,9.331-19.595,15.162-32.437,15.162c-0.004,0-0.008,0-0.012,0c-11.316,0-21.956-4.407-29.961-12.408
			c-8.004-8.005-12.416-18.648-12.416-29.969c0-12.846,5.835-24.587,15.17-32.448c-9.044-5.206-15.17-14.958-15.17-26.13
			c-0.004-9.389,4.534-18.003,11.786-23.364c-2.505-3.417-5.038-6.83-7.44-10.284l10.46-7.268
			c7.272,10.473,15.06,20.813,23.143,30.742l-9.879,8.045c-2.947-3.621-5.799-7.35-8.656-11.065
			c-3.708,2.718-6.683,7.264-6.679,13.194c0,9.597,7.809,17.404,17.405,17.404c1.24,0.054,2.48-0.176,4.006-0.454
			c7.98-1.437,14.814-4.526,21.526-9.113c6.102-4.171,12.097-9.577,18.751-16.235l0.065-0.065
			c-41.75-45.933-75.296-99.453-98.336-158.249v60.318v247.32H301.86c6.761,2.931,13.587,5.722,20.487,8.382H36.668v63.158
			l955.415-0.005h2.619v-63.153h-2.619h-283.06c6.899-2.66,13.726-5.451,20.486-8.382h262.573h2.619V861.658v-60.314
			c-0.851,2.169-1.738,4.322-2.619,6.475C969.166,864.02,936.626,915.269,896.459,959.483z"/>
		<path fill="#58595B" d="M461.665,764.361c0,0-2.206,1.084-5.758-0.349c-4.542-1.833-5.329-5.5-5.329-5.5
			c-5.5,1.048-2.881,6.196-2.881,6.196c-5.173-0.966-8.066-5.926-8.471-6.662c0.127,0.393,0.299,1.85-0.258,7.361
			c-0.176,1.748-2.271,5.063-2.271,5.063c4.891,22.001,7.162,49.068,8.557,66.179c0.274-0.966,0.859-5.402,2.096-6.634
			c5.762-5.762,9.781-5.59,10.828-8.033c1.048-2.443,2.668-13.763,2.668-13.763C460.634,796.589,462.271,777.952,461.665,764.361z"
			/>
		<path fill="#58595B" d="M515.685,134.811c-264.554,0-479.017,214.463-479.017,479.02c0,264.55,214.463,479.017,479.017,479.017
			c247.579,0,451.274-187.829,476.397-428.762c1.724-16.518,2.619-33.284,2.619-50.255c0-16.976-0.896-33.738-2.619-50.257
			C966.959,322.64,763.264,134.811,515.685,134.811z M770.9,835.254c-5.762,4.19-24.665,2.963-34.572,1.31
			c-9.903-1.653-10.738-19.12-8.005-21.943c2.733-2.824,22.726-13.374,19.541-31.889c-6.821-39.672-22.414-39.921-33.537-45.958
			c-16.963-9.212-25.855-9.899-38.706-44.812c-1.039-2.815-8.7,7.097-2.938,11.811c0,0-7.071,6.81-9.429,4.19
			c0.438,16.673-0.962,36.841,6.896,53.431c0.904,1.907,0,12.221-1.571,14.84c-2.832,4.723-7.976,11.401-11.172,18.334
			c-6.114,13.271-12.879,32.837-20.781,35.097c-9.167,2.619-33.284,2.603-42.255-0.172c-11-3.405-7.857-26.892-2.095-28.811
			c6.286-2.096,15.977-1.572,23.834-4.977c6.724-6.654,16.905-25.39,12.31-32.739c-13.092-20.954-19.377-38.068-19.377-38.068
			c-7.857,2.096-4.715,4.891-12.924,7.162c-0.696-5.238-4.539-0.176-8.034-4.06c-18.988,4.846-19.905,13.75-38.894,10.346
			c-5.104-0.917-1.412,7.424-1.412,7.424c-9.326,2.267-11-1.772-14.872-2.014c-7.088,15.73-12.789,18.596-18.088,34.769
			c-12.29,37.52-0.065,46.948-6.617,69.302c-1.756,5.982-14.451,17.859-20.561,17.679c-17.291-0.523-25.97-2.971-31.208-4.411
			c-7.682-2.112-11.872-6.635-11.872-6.635c-0.147-0.081-3.667,9.254-12.224,17.111c-2.82,2.59-16.063,4.019-20.429,4.19
			c-7.51,0.303-12.572-2.096-20.954-4.362c-4.452-1.208-5.938-0.876-9.916-6.499c-1.461-2.063-3.184-10.44-1.789-14.282
			c1.396-3.839,7.108-7.367,10.129-8.729c10.824-4.891,13.268-8.033,12.919-12.224c-12.78-26.634-16.447-56.025-30.685-77.822
			c-1.617,0.995-0.917,5.361-5.894,6.671c-0.786-8.643-10.563-0.09-10.477-9.429c0,0-12.048-4.453-10.738-14.405
			c1.539-11.704-3.078-17.09-3.078-17.09c-4.125,3.47-6.94,0-6.94,0c1.113-8.315-6.221-2.815-9.625-14.078
			c3.929-16.501-13.62-11.672-11.131-36.537c1.093-10.914-6.941-13.227-7.813-9.126c0,0-14.581-4.624-7.686-20.602
			c-7.203-9.167-0.741-15.584-1.396-20.429c-0.786-5.806-8.205-3.144-7.682-11.701c0,0,2.857,0.704,5.239-1.571
			c4.019-3.841,3.122-9.556-2.443-11.874c-6.286-2.619-3.757-10.739-3.757-10.739c-9.515-13.008,6.29-16.554,0.61-32.04
			c-2.787-7.602-13.575-4.89-20.536,0.483c-1.568,1.209-2.235,2.096-2.337,2.812c-0.131,0.917,0.65,0.917,0.655,0.917
			c-0.544,0.698-1.101,1.43-2.227,1.571c-2.095,0.262-3.143-0.982-3.143-0.982c-1.179,1.899-0.393,3.929-0.393,3.929
			c-2.619-0.655-3.798-3.405-3.798-3.405c-1.571,1.898,0.131,3.143,0.131,3.143c-3.667,0.917-4.845-2.095-7.321-6.425
			c-4.199-7.344-7.235-8.899-7.235-15.836c0-1.084-1.027-6.419,0.409-8.997c0.839-1.508,3.016-3.006,3.016-3.006
			c-1.571-7.25-5.631-7.381-7.059-18.062c-1.105-8.277,2.599-10.563,0.511-14.986c-1.399-2.977-4.162-4-5.238-7.857
			c-0.356-1.285-1.408-4.086,0-6.548c3.143-5.5,15.871-17.851,22.803-21.317c15.256-8.324,16.615-20.458,28.139-30.804
			c3.45-3.096,8.557-5.484,8.557-5.484s-4.301-6.822-1.092-11.541c2.226-3.274-2.096-5.893,0.917-10.083
			c2.1-2.92,6.278-3.38,7.465-10.258c1.747-10.126,8.819-15.453,16.284-14.575c6.306,0.741,6.679-2.187,9.433-6.589
			c4.162-6.652,11.083-12.711,23.654-8.389c9.846,3.384,20.298,4.714,27.833,2.497c-4.129,1.956-2.688,4.575-2.688,4.575
			c13.881-3.667,27.894,0.786,36.766,9.38c8.152,7.896,12.74,16.906,12.74,16.906s11.913-4.94,21.866,3.704
			c15.6,13.548,13.484,23.155,16.5,35.62c3.929,16.239,19.382,10.739,19.382,10.739s0.352,4.453-5.238,6.548
			c16.938,9.779,11.004,17.112,17.291,25.494c12.158-2.515,15.191,12.746,19.905,14.317c4.714,1.571,10.735-1.048,12.306,4.19
			c-4.977-0.262-3.049,5.494,1.31,4.977c13.967-1.658,4.436,19.238,19.729,23.486c11.45,3.18,15.891,12.658,15.104,24.444
			c0,0,32.171-4.504,59.631-9.603c12.22-2.269,29.158,1.222,35.969,2.531c11.811,2.271,20.953,7.333,20.953,7.333
			s4.714-9.269,13.096-16.762c17.286-15.453,40.625-24.596,55.018-37.679c16.505-14.987,24.514-50.636-1.403-58.968
			c0.078,8.119-6.626,14.665-13.542,16.5c-6.417,1.703-4.845,8.12-11.523,6.548c0,0,2.881-3.012,0.131-4.714
			c0,0-3.536,2.881-7.988,0.917c-11.918-5.256-9.691-13.881-9.691-13.881c9.298,3.143,3.012-8.512,8.644-9.691
			c0,0-0.524-5.5,4.321-3.929c2.844,0.923,2.488-3.012,2.488-3.012c13.619-0.786,15.715-4.714,27.239-2.881
			c16.754,2.666,29.465,17.941,31.691,32.216c9.658,61.93-49.154,71.764-67.312,116.464c27.501,24.096,22.438,54.216,28.725,84.95
			c5.115,25.021,9.601,42.078,20.776,70.717c4.854,12.441,14.668,28.896,20.43,41.73c3.564,7.943-0.712,31.745,1.657,39.111
			C784.868,808.711,776.118,831.456,770.9,835.254z"/>
		<path fill="#58595B" d="M0,0.002v1217.176l1029.14-0.005h2.23V772.243V0L0,0.002z M1005.178,134.168v252.997v68.415v316.34v68.412
			v268.639v8.382v73.63h-8.904h-1.572h-2.619l-955.415,0.005h-2.619H31.43h-5.238v-0.078v-73.557v-8.382V840.324v-68.413V455.59
			v-68.417V134.168v-8.381V26.194h10.477l958.034-0.002h1.572h8.904v99.595V134.168z"/>
	</g>
</g>
</svg>
